<svg xmlns="http://www.w3.org/2000/svg" fill="none" viewBox="0 0 20 20" class="design-iconfont">
  <path d="M10 1.25C5.16797 1.25 1.25 5.16797 1.25 10C1.25 14.832 5.16797 18.75 10 18.75C14.832 18.75 18.75 14.832 18.75 10C18.75 5.16797 14.832 1.25 10 1.25Z" fill="#1890FF"/>
  <path d="M13.9109 9.48098H13.0058C12.9544 9.48098 12.9053 9.50321 12.8706 9.54209L10.4246 12.3453V6.08889C10.4246 6.04 10.3844 6 10.3353 6H9.66482C9.61565 6 9.57542 6.04 9.57542 6.08889V12.3453L7.12944 9.54209C7.09591 9.50321 7.04675 9.48098 6.99423 9.48098H6.08914C6.01315 9.48098 5.97181 9.57098 6.02209 9.62765L9.73074 13.8775C9.76427 13.9159 9.80571 13.9468 9.85227 13.9679C9.89883 13.9891 9.94941 14 10.0006 14C10.0518 14 10.1024 13.9891 10.1489 13.9679C10.1955 13.9468 10.2369 13.9159 10.2704 13.8775L13.978 9.62765C14.0283 9.56987 13.9869 9.48098 13.9109 9.48098Z" fill="#fff"/>
  <path fill-rule="evenodd" clip-rule="evenodd" d="M12.7213 9.40906C12.7933 9.32822 12.8965 9.28098 13.0058 9.28098H13.9109C14.156 9.28098 14.2934 9.56983 14.1288 9.75895L10.4212 14.0089C10.3688 14.069 10.3041 14.1171 10.2316 14.15C10.159 14.183 10.0803 14.2 10.0006 14.2C9.92092 14.2 9.84215 14.183 9.76959 14.15C9.69707 14.1171 9.63241 14.069 9.58005 14.009L5.8725 9.76039L5.87181 9.75961C5.70511 9.57052 5.84555 9.28098 6.08914 9.28098H6.99423C7.10317 9.28098 7.20797 9.3272 7.28046 9.41097L9.37542 11.8119V6.08889C9.37542 5.92847 9.50627 5.8 9.66482 5.8H10.3353C10.4938 5.8 10.6246 5.92847 10.6246 6.08889V11.8119L12.7213 9.40906ZM10.4246 12.3453V6.08889C10.4246 6.04 10.3844 6 10.3353 6H9.66482C9.61565 6 9.57542 6.04 9.57542 6.08889V12.3453L7.12944 9.54209C7.09591 9.50321 7.04675 9.48098 6.99423 9.48098H6.08914C6.01315 9.48098 5.97181 9.57098 6.02209 9.62765L9.73074 13.8775C9.76427 13.9159 9.80571 13.9468 9.85227 13.9679C9.89883 13.9891 9.94941 14 10.0006 14C10.0518 14 10.1024 13.9891 10.1489 13.9679C10.1955 13.9468 10.2369 13.9159 10.2704 13.8775L13.978 9.62765C14.0283 9.56987 13.9869 9.48098 13.9109 9.48098H13.0058C12.9544 9.48098 12.9053 9.50321 12.8706 9.54209L10.4246 12.3453Z" fill="#fff"/>
</svg>
