<svg xmlns="http://www.w3.org/2000/svg" fill="none" viewBox="0 0 20 20" class="design-iconfont">
  <path d="M10 1.25C5.16797 1.25 1.25 5.16797 1.25 10C1.25 14.832 5.16797 18.75 10 18.75C14.832 18.75 18.75 14.832 18.75 10C18.75 5.16797 14.832 1.25 10 1.25ZM8.4375 12.9688C8.4375 13.0547 8.36719 13.125 8.28125 13.125H7.34375C7.25781 13.125 7.1875 13.0547 7.1875 12.9688V7.03125C7.1875 6.94531 7.25781 6.875 7.34375 6.875H8.28125C8.36719 6.875 8.4375 6.94531 8.4375 7.03125V12.9688ZM12.8125 12.9688C12.8125 13.0547 12.7422 13.125 12.6562 13.125H11.7188C11.6328 13.125 11.5625 13.0547 11.5625 12.9688V7.03125C11.5625 6.94531 11.6328 6.875 11.7188 6.875H12.6562C12.7422 6.875 12.8125 6.94531 12.8125 7.03125V12.9688Z" fill="#1890FF"/>
</svg>
