<svg xmlns="http://www.w3.org/2000/svg" fill="none" viewBox="0 0 20 20" class="design-iconfont">
  <path d="M17.4238 14.4102L15.2695 13.166C15.2341 13.1457 15.1951 13.1327 15.1546 13.1275C15.1142 13.1223 15.0731 13.1251 15.0337 13.1358C14.9944 13.1465 14.9575 13.1649 14.9253 13.1898C14.893 13.2148 14.866 13.2459 14.8457 13.2812L14.457 13.9551C14.3711 14.1035 14.4219 14.2949 14.5703 14.3809L16.7246 15.625C16.76 15.6453 16.799 15.6584 16.8395 15.6635C16.88 15.6687 16.921 15.6659 16.9604 15.6552C16.9997 15.6445 17.0366 15.6261 17.0689 15.6012C17.1011 15.5762 17.1282 15.5452 17.1484 15.5098L17.5371 14.8359C17.623 14.6875 17.5703 14.4961 17.4238 14.4102V14.4102ZM14.8438 6.71875C14.864 6.75415 14.891 6.78521 14.9233 6.81016C14.9556 6.83511 14.9924 6.85345 15.0318 6.86415C15.0712 6.87486 15.1122 6.8777 15.1527 6.87252C15.1931 6.86735 15.2322 6.85425 15.2676 6.83398L17.4219 5.58984C17.5703 5.50391 17.6211 5.3125 17.5352 5.16406L17.1484 4.49219C17.1282 4.45679 17.1011 4.42573 17.0689 4.40078C17.0366 4.37583 16.9997 4.35748 16.9604 4.34678C16.921 4.33608 16.88 4.33324 16.8395 4.33842C16.799 4.34359 16.76 4.35669 16.7246 4.37695L14.5703 5.62109C14.499 5.66268 14.447 5.73081 14.4258 5.8106C14.4046 5.89039 14.4158 5.97534 14.457 6.04688L14.8438 6.71875ZM18.2422 9.29688H15.7422C15.5703 9.29688 15.4297 9.4375 15.4297 9.60938V10.3906C15.4297 10.5625 15.5703 10.7031 15.7422 10.7031H18.2422C18.4141 10.7031 18.5547 10.5625 18.5547 10.3906V9.60938C18.5547 9.4375 18.4141 9.29688 18.2422 9.29688ZM12.2246 2.24609C12.1094 2.24609 11.9922 2.27734 11.8848 2.34961L4.96094 6.875H1.75781C1.58594 6.875 1.44531 7.01562 1.44531 7.1875V12.8125C1.44531 12.9844 1.58594 13.125 1.75781 13.125H4.96094L11.8848 17.6504C11.9922 17.7207 12.1113 17.7539 12.2246 17.7539C12.5508 17.7539 12.8516 17.4941 12.8516 17.127V2.87305C12.8516 2.50586 12.5508 2.24609 12.2246 2.24609Z" fill="#1890FF"/>
</svg>
